<svg width="14" height="17" viewBox="0 0 14 17" fill="none" xmlns="http://www.w3.org/2000/svg">
<path d="M13.0728 5.68253C12.5519 6.00144 12.1205 6.44728 11.8188 6.97834C11.5172 7.50941 11.3552 8.10832 11.348 8.71903C11.3501 9.40639 11.5537 10.078 11.9337 10.6508C12.3137 11.2236 12.8534 11.6723 13.4859 11.9413C13.2365 12.7459 12.8675 13.5084 12.3911 14.2031C11.7095 15.1843 10.9968 16.1654 9.91242 16.1654C8.82802 16.1654 8.54912 15.5354 7.29942 15.5354C6.08072 15.5354 5.64692 16.1861 4.65542 16.1861C3.66392 16.1861 2.97202 15.2772 2.17672 14.1618C1.12618 12.5993 0.548826 10.7668 0.513916 8.88423C0.513916 5.78583 2.52792 4.14373 4.51082 4.14373C5.56432 4.14373 6.44222 4.83563 7.10322 4.83563C7.73322 4.83563 8.71442 4.10233 9.91242 4.10233C10.5284 4.08644 11.1388 4.22225 11.6899 4.49781C12.241 4.77337 12.716 5.18023 13.0728 5.68253ZM9.34442 2.79073C9.87252 2.16949 10.1715 1.38586 10.1913 0.570732C10.1922 0.463274 10.1818 0.35602 10.1603 0.250732C9.25317 0.339346 8.41432 0.771707 7.81582 1.45913C7.28262 2.05562 6.97242 2.81832 6.93792 3.61763C6.93832 3.71484 6.9487 3.81175 6.96892 3.90683C7.04043 3.92035 7.11304 3.92728 7.18582 3.92753C7.60389 3.89427 8.01083 3.77634 8.38191 3.58091C8.75299 3.38549 9.08046 3.11665 9.34442 2.79073Z" fill="white"/>
</svg>
